<svg width="1440" height="1024" viewBox="0 0 1440 1024" fill="none" xmlns="http://www.w3.org/2000/svg">
<g opacity="0.1">
<path d="M341.35 322.607C337.779 330.059 333.92 337.552 330.177 344.821C320.578 363.595 310.519 383.025 304.299 403.888C285.408 467.357 305.508 541.677 353.175 584.651C373.947 603.365 398.865 616.058 420.866 627.258C451.889 643.043 480.013 655.921 510.249 653.341C524.724 652.113 538.623 647.199 552.061 642.531C562.615 638.5 573.442 635.331 584.447 633.052C606.562 629.08 629.522 632.54 651.638 635.877C671.45 638.866 691.953 642.019 712.168 639.972C763.444 634.894 812.225 598.328 861.255 528.123C868.012 518.439 874.693 508.386 881.297 498.641C910.439 455.175 940.579 410.235 983.197 382.472C997.557 373.116 1013.34 365.765 1028.6 358.641C1039.02 353.788 1049.72 348.772 1060.12 343.121C1072.6 336.283 1089.72 325.063 1094.22 306.576C1097.11 294.68 1094.1 282.191 1090.78 271.545C1084.48 251.419 1075.73 231.703 1067.26 212.641C1051.9 177.836 1035.87 141.945 1035.32 103.577C1034.8 67.1132 1048.64 30.0146 1073.54 0.245667H1065.86C1042.11 30.4446 1029.02 67.3384 1029.54 103.68C1030.12 143.378 1046.34 179.924 1062.04 215.262C1070.43 234.159 1079.11 253.712 1085.29 273.49C1088.34 283.276 1091.14 294.68 1088.63 305.04C1084.79 321.132 1068.97 331.369 1057.47 337.655C1047.32 343.224 1036.62 348.199 1026.28 353.01C1010.92 360.217 994.869 367.649 980.202 377.231C936.566 405.649 906.081 451.1 876.536 495.078C870.028 504.783 863.29 514.815 856.551 524.458C808.558 593.169 761.121 628.875 711.572 633.871C691.991 635.795 671.853 632.765 652.367 629.776C629.734 626.377 606.294 622.856 583.257 626.971C571.966 629.306 560.857 632.55 550.026 636.676C536.914 641.262 523.341 646.032 509.577 647.199C480.781 649.656 453.367 637.105 423.188 621.689C401.514 610.653 376.942 598.144 356.746 579.942C310.787 538.524 291.475 466.886 309.636 405.73C315.683 385.441 325.531 366.277 335.072 347.748C338.912 340.46 342.751 332.905 346.322 325.371C373.582 267.794 388.419 204.444 389.746 139.959C390.841 92.6367 384.727 45.4384 371.643 0.204712H365.596C396.523 105.256 388.172 224.864 341.35 322.607Z" fill="black"/>
<path d="M849.084 1002.85C852.309 997.834 855.649 992.614 858.682 987.454C874.391 960.708 884.362 930.589 887.882 899.253C889.36 885.883 889.801 872.002 890.051 858.571C890.857 826.755 891.606 796.679 905.927 770.82C930.5 726.453 984.176 715.991 1013.99 713.678C1030.29 712.429 1047.03 712.572 1063.23 712.715C1089.28 712.941 1116.24 713.186 1142.32 707.597C1148.64 706.246 1154.98 704.546 1161.1 702.888C1170.86 700.012 1180.79 697.81 1190.82 696.295C1211.57 693.675 1232.82 697.053 1254.57 701.086C1273.25 704.546 1291.47 708.211 1308.8 715.111C1342.5 728.501 1371.1 753.581 1398.74 777.822C1412.03 789.451 1425.62 801.347 1439.88 812.096V804.582C1426.97 794.611 1414.56 783.739 1402.41 773.093C1374.38 748.524 1345.4 723.116 1310.8 709.358C1293.02 702.274 1274.52 698.548 1255.55 695.026C1238.87 691.934 1222.45 689.232 1206.18 689.232C1200.81 689.215 1195.45 689.536 1190.13 690.194C1179.85 691.736 1169.68 693.986 1159.68 696.93C1153.63 698.568 1147.37 700.247 1141.19 701.578C1115.7 707.044 1089.05 706.799 1063.27 706.573C1046.97 706.43 1030.1 706.287 1013.57 707.556C982.64 709.951 926.872 720.925 900.974 767.708C885.904 794.938 885.079 827.205 884.292 858.407C883.946 871.695 883.601 885.433 882.161 898.536C878.739 928.962 869.057 958.207 853.806 984.178C850.811 989.256 847.509 994.415 844.323 999.37C839.197 1007.35 833.995 1015.44 829.637 1023.94H836.279C840.195 1016.71 844.726 1009.73 849.084 1002.85Z" fill="black"/>
<path d="M354.327 1023.67C384.161 982.955 402.279 933.882 406.487 882.403C407.139 874.009 407.466 865.041 405.316 856.38C401.476 841.046 390.822 829.232 379.821 818.729C375.118 814.266 370.223 809.823 365.5 805.544C349.624 791.212 333.191 776.225 321.711 757.635C316.676 749.071 312.143 740.181 308.138 731.019C301.246 716.094 294.124 700.656 282.682 688.7C265.98 671.256 243.347 664.848 227.317 662.555C221.208 661.676 215.051 661.231 208.887 661.224C172.182 661.224 137.857 676.968 116.279 704.485C88.673 739.72 86.7148 793.301 111.787 826.468C119.466 836.521 129.064 844.628 138.433 852.47C150.662 862.707 162.218 872.391 169.494 886.027C185.39 915.755 175.1 953.898 164.234 987.311L152.332 1023.9H158.417L169.667 989.338C180.955 954.635 191.571 914.936 174.505 882.976C166.653 868.317 154.117 857.814 141.984 847.638C132.885 840.022 123.459 832.119 116.279 822.619C92.858 791.642 94.7969 741.481 120.694 708.436C144.211 678.401 185.754 662.78 226.549 668.635C241.715 670.805 263.024 676.825 278.651 693.081C289.382 704.301 295.929 718.591 302.974 733.742C307.076 743.12 311.724 752.214 316.892 760.972C328.833 780.3 345.573 795.491 361.776 810.11C366.479 814.389 371.375 818.791 375.982 823.213C386.329 833.061 396.35 844.076 399.748 857.834C401.345 865.702 401.682 873.801 400.747 881.789C396.627 932.074 378.938 980.011 349.816 1019.8L346.783 1023.9H354.174C354.174 1023.9 354.289 1023.75 354.327 1023.67Z" fill="black"/>
<path d="M138.894 306.002C177.461 298.898 212.516 263.007 230.83 234.467C253.329 199.333 265.251 158.017 273.928 122.249C276.635 111.091 279.035 98.3359 273.256 87.8328C268.879 79.9299 260.759 75.5485 255.038 72.9893C243.644 67.9417 231.419 65.373 219.081 65.4344C192.896 65.4344 166.346 76.7974 152.927 102.287C148.089 111.439 145.401 121.594 142.81 131.401C141.639 135.783 140.448 140.307 139.085 144.648C133.359 162.662 124.21 179.222 112.209 193.294C109.541 196.406 106.642 199.436 103.839 202.527C94.5667 212.457 84.9679 222.735 80.6484 236.371C75.4459 252.75 79.3046 271.32 90.9574 285.877C103.493 301.396 121.827 309.114 138.894 306.002ZM86.1389 238.275C89.9784 225.99 98.7133 216.675 107.928 206.806C110.788 203.756 113.687 200.664 116.471 197.368C129.007 182.671 138.563 165.371 144.538 146.552C145.958 142.068 147.168 137.461 148.377 133.019C150.988 123.109 153.464 113.753 157.976 105.236C176.252 70.5733 221.443 64.4312 252.811 78.6196C260.816 82.2434 265.597 86.0311 268.303 90.9039C272.988 99.3801 270.799 110.702 268.303 120.652C259.741 155.929 248.031 196.61 226.069 230.945C208.407 258.523 174.716 293.145 137.914 299.901C122.864 302.665 106.546 295.806 95.3538 281.782C85.0255 268.924 81.5699 252.647 86.1389 238.275Z" fill="black"/>
<path d="M1332.9 432.838C1357.74 383.322 1365.45 326.065 1354.69 271.094C1349.81 246.792 1341.75 231.17 1329.29 221.957C1321.36 216.081 1311.34 212.682 1298.57 211.556C1295.83 211.311 1293.14 211.188 1290.53 211.188C1280.31 210.958 1270.18 213.242 1260.93 217.862C1235.97 230.904 1226.37 259.793 1217.1 287.699C1213.64 298.744 1209.62 309.578 1205.04 320.15C1194.37 343.429 1177.24 362.981 1160.7 381.878C1152.23 391.542 1143.42 401.554 1135.61 412.016C1106.12 451.162 1096.94 493.42 1111.07 525.052C1122.59 550.747 1140.16 564.116 1163.44 564.751C1226.35 566.45 1312.01 473.99 1332.9 432.838ZM1163.63 558.609C1142.69 558.035 1126.76 545.853 1116.31 522.411C1096.83 478.761 1129.62 429.808 1140.14 415.947C1147.82 405.71 1156.55 395.739 1164.96 386.157C1181.79 366.912 1199.19 347.032 1210.25 322.934C1214.93 312.158 1219.04 301.112 1222.57 289.848C1231.88 261.84 1240.69 235.408 1263.5 223.452C1273 218.476 1284.62 216.552 1298.05 217.76C1309.75 218.784 1318.86 221.855 1325.91 227.076C1337.1 235.265 1344.44 249.802 1348.95 272.487C1359.43 326.065 1351.92 381.87 1327.71 430.135C1308.21 468.565 1224.84 558.609 1165.32 558.609H1163.63Z" fill="black"/>
<path d="M888.611 980.309C895.465 968.311 902.549 955.904 907.501 942.596C915.296 921.651 917.676 898.823 919.98 876.752C920.767 869.259 921.573 861.499 922.571 853.924C927.62 816.211 938.64 790.168 956.263 774.28C973.541 758.7 996.405 753.213 1018.35 748.913C1088.47 735.229 1159.82 730.023 1231.04 733.394C1249.68 734.295 1271.2 735.851 1290.91 743.221C1310.63 750.592 1327.87 763.245 1345.36 776.717C1377.57 801.511 1409.27 827.779 1439.9 854.988V852.306C1409.61 825.465 1378.3 799.545 1346.49 775.058C1328.87 761.505 1311.4 748.708 1291.55 741.297C1271.7 733.885 1249.89 732.247 1231.13 731.367C1217.05 730.685 1202.98 730.35 1188.9 730.364C1131.56 730.357 1074.33 735.894 1017.93 746.907C996.808 751.002 972.6 756.796 954.957 772.704C936.95 788.94 925.72 815.412 920.594 853.637C919.596 861.233 918.77 869.013 917.983 876.527C915.699 898.475 913.337 921.16 905.639 941.838C900.763 954.983 893.718 967.308 886.903 979.244C882.199 987.434 877.304 995.971 873.196 1004.73C870.278 1010.91 867.819 1017.31 865.843 1023.9H867.763C869.711 1017.64 872.092 1011.54 874.885 1005.66C879.089 996.974 883.927 988.498 888.611 980.309Z" fill="black"/>
<path d="M944.015 1001.81C950.858 991.588 956.961 980.828 962.272 969.621C969.951 952.301 972.504 933.198 975 914.731C975.921 907.934 976.919 900.911 978.071 894.093C983.735 861.683 993.698 840.268 1009.44 826.673C1024.8 813.426 1045.61 808.533 1063.9 804.991C1125.28 793.106 1187.71 788.615 1250.02 791.601C1268.61 792.482 1288.42 794.14 1306.58 800.18C1316.01 803.405 1325.15 807.516 1333.9 812.464C1342.42 817.132 1350.73 822.312 1358.85 827.328L1367.26 832.549C1380.45 840.738 1393.37 848.785 1405.77 856.544C1418.17 864.304 1427.92 870.589 1437.31 876.854L1439.85 878.533V876.117L1438.2 875.012C1428.79 868.747 1419 862.461 1406.62 854.681C1394.23 846.901 1381.29 838.875 1368.09 830.686L1359.68 825.465C1351.62 820.428 1343.28 815.228 1334.72 810.54C1325.87 805.591 1316.62 801.48 1307.1 798.255C1288.63 792.113 1268.7 790.475 1250.08 789.595C1237.61 788.994 1225.15 788.701 1212.68 788.714C1162.66 788.719 1112.74 793.515 1063.52 803.046C1044.99 806.65 1023.9 811.625 1008.19 825.178C992.085 839.08 981.911 860.885 976.152 893.807C974.942 900.645 973.982 907.708 973.061 914.526C970.584 932.85 968.012 951.789 960.506 968.823C955.234 979.938 949.175 990.608 942.383 1000.74C937.641 1008.24 932.785 1015.95 928.503 1023.98H930.711C934.858 1016.3 939.484 1008.95 944.015 1001.81Z" fill="black"/>
<path d="M999.592 1023.61C1005.96 1015.04 1011.79 1006.04 1017.04 996.647C1024.38 982.766 1027.22 967.206 1029.98 952.178C1031.06 946.261 1032.19 940.16 1033.55 934.284C1037.39 917.556 1044.74 893.643 1062.62 879.004C1076.05 868.092 1093.83 863.976 1109.46 860.967C1162.08 850.968 1215.59 847.246 1268.99 849.87C1285.23 850.648 1304.25 852.122 1322.2 857.199C1331.08 859.793 1339.78 863.015 1348.26 866.843C1354.01 869.381 1359.77 872.063 1365.28 874.664L1372.18 877.899C1387.53 885.023 1402.53 891.35 1416.54 896.755L1423.11 899.273C1428.87 901.443 1434.24 903.532 1439.88 905.845V903.655C1434.47 901.443 1429.23 899.437 1423.76 897.349L1417.19 894.83C1403.22 889.446 1388.4 883.119 1373.04 876.015L1366.15 872.78C1360.6 870.18 1354.88 867.498 1349.08 864.939C1340.53 861.083 1331.75 857.834 1322.8 855.213C1304.68 850.095 1285.52 848.6 1269.18 847.843C1258.3 847.311 1247.42 847.051 1236.55 847.065C1193.84 847.042 1151.22 851.07 1109.19 859.104C1093.35 862.154 1075.31 866.351 1061.52 877.53C1043.17 892.455 1035.76 916.819 1031.77 933.854C1030.38 939.771 1029.27 945.913 1028.18 951.85C1025.45 966.714 1022.63 982.111 1015.45 995.705C1010.25 1005.01 1004.48 1013.95 998.171 1022.44L997.077 1023.96H999.496L999.592 1023.61Z" fill="black"/>
<path d="M1071.79 1023.67C1078.61 1013.07 1081.78 1000.97 1084.85 989.276C1086.13 984.363 1087.46 979.306 1089.03 974.494C1093.64 960.347 1100.86 942.657 1115.77 931.499C1127.29 922.88 1142.08 919.542 1155.01 917.167C1198.89 908.927 1243.49 905.872 1287.99 908.057C1304.76 908.613 1321.46 910.668 1337.91 914.199C1346.62 916.246 1354.96 918.744 1362.67 921.221L1367.26 922.716C1373.63 924.763 1379.64 926.811 1385.67 928.469C1399.36 932.587 1413.35 935.423 1427.5 936.945C1430.8 937.273 1433.95 937.477 1437.1 937.703L1439.92 937.887V935.84L1437.22 935.655C1434.11 935.451 1430.98 935.225 1427.62 934.918C1413.58 933.37 1399.7 930.555 1386.11 926.503C1380.12 924.743 1374.11 922.798 1367.76 920.75L1363.17 919.276C1355.49 916.778 1347.03 914.199 1338.22 912.192C1321.67 908.652 1304.87 906.598 1287.99 906.05C1278.66 905.6 1269.37 905.381 1260.1 905.395C1224.7 905.349 1189.37 908.631 1154.51 915.202C1141.36 917.7 1126.35 921.098 1114.51 929.943C1098.96 941.552 1091.47 960.654 1087.06 973.921C1085.46 978.794 1084.12 983.892 1082.83 988.826C1079.8 1000.35 1076.67 1012.29 1070.05 1022.61L1069.11 1024H1071.47C1071.59 1023.91 1071.7 1023.8 1071.79 1023.67Z" fill="black"/>
<path d="M1144.47 1014.75C1149.45 1004.51 1156.7 991.917 1168.93 984.035C1178.53 977.75 1190.32 975.19 1200.57 973.286C1235.7 966.86 1271.38 964.512 1306.98 966.284C1322.58 966.974 1338.14 968.587 1353.57 971.116C1359.22 972.058 1364.82 973.163 1370.24 974.228L1377.11 975.559C1385.82 977.217 1392.83 978.302 1399.17 978.978C1414.53 980.514 1427.68 979.858 1438.52 976.931L1439.9 976.521V974.474L1437.98 975.006C1427.5 977.75 1414.1 978.425 1399.26 976.91C1392.99 976.255 1386.04 975.17 1377.36 973.511L1370.51 972.181C1365.07 971.136 1359.47 970.031 1353.8 969.069C1338.3 966.531 1322.67 964.918 1307 964.237C1299.24 963.841 1291.51 963.65 1283.81 963.664C1255.78 963.617 1227.79 966.151 1200.17 971.239C1189.74 973.184 1177.78 975.784 1167.86 982.274C1155.23 990.464 1147.78 1003.51 1142.69 1013.89C1141.1 1017.16 1139.68 1020.6 1138.27 1023.98H1140.39C1141.73 1020.81 1143.03 1017.76 1144.47 1014.75Z" fill="black"/>
<path d="M1430.02 1023.9H1436.28C1437.52 1023.41 1438.73 1022.89 1439.9 1022.34V1020.13C1436.7 1021.63 1433.39 1022.89 1430.02 1023.9Z" fill="black"/>
<path d="M1326.06 1022.34C1307.19 1021.42 1288.28 1021.94 1269.47 1023.9H1348.18C1340.86 1023.24 1333.44 1022.69 1326.06 1022.34Z" fill="black"/>
<path d="M1333.24 304.651C1330.8 286.224 1325.72 272.548 1317.69 262.516C1313.99 257.72 1309.37 253.823 1304.13 251.087C1298.9 248.35 1293.18 246.837 1287.36 246.648C1284.46 246.635 1281.57 247.069 1278.78 247.938C1267.26 251.562 1257.41 262.905 1251.71 279.099C1249.36 286.313 1247.44 293.678 1245.95 301.15C1244.51 307.62 1243.02 314.294 1240.96 320.621C1232.44 346.929 1214.08 368.304 1197.59 386.26C1195.48 388.573 1193.33 390.887 1191.18 393.2C1175.54 410.071 1159.33 427.515 1148.39 448.48C1137.79 468.81 1124.87 511.949 1151.87 529.802C1175.88 545.669 1212.11 524.335 1231.57 510.188C1257.2 491.577 1277.09 466.497 1291.57 446.719C1301.36 433.794 1310.01 419.929 1317.41 405.3C1332.25 374.282 1337.78 339.139 1333.24 304.651ZM1315.62 404.4C1308.28 418.914 1299.7 432.67 1289.97 445.491C1275.59 465.146 1255.82 490.083 1230.46 508.55C1211.4 522.39 1175.94 543.356 1152.84 528.103C1127.1 511.068 1139.75 469.261 1150.04 449.524C1160.87 428.743 1176.92 411.402 1192.53 394.634L1198.96 387.693C1215.62 369.574 1234.11 347.994 1242.77 321.296C1244.84 314.867 1246.34 308.131 1247.8 301.621C1249.28 294.23 1251.21 286.948 1253.55 279.816C1259.03 264.236 1268.45 253.323 1279.38 249.904C1293.58 245.441 1308.17 253.671 1316.27 263.826C1324.05 273.572 1329 287.003 1331.38 304.938C1335.83 339.031 1330.33 373.759 1315.62 404.4Z" fill="black"/>
<path d="M1303.54 345.926C1302.47 335.239 1299.46 326.824 1294.6 320.866C1292.33 318.127 1289.53 315.932 1286.41 314.429C1283.28 312.925 1279.89 312.147 1276.46 312.144C1273.67 312.133 1270.91 312.674 1268.32 313.741L1267.57 314.069C1258.37 318.266 1252.71 328.401 1249.58 336.201C1248.22 339.559 1247.09 343.121 1245.88 346.889C1244.45 351.311 1243 355.877 1241.08 360.442C1234.7 375.511 1223.53 388.676 1213.55 399.834L1210.74 402.926C1201.51 413.162 1191.97 423.666 1185.63 435.95C1179.09 448.664 1172.35 472.803 1188.57 482.651C1195.31 486.745 1203.93 486.971 1214.12 483.285C1222.32 480.317 1231.29 474.891 1241.48 466.681C1254.62 455.758 1266.33 443.013 1276.3 428.784C1282.04 421.149 1287.18 413.021 1291.66 404.482C1295.06 397.777 1297.8 390.717 1299.84 383.414C1302.82 373.103 1304.21 362.343 1303.95 351.557C1303.79 349.693 1303.68 347.789 1303.54 345.926ZM1297.98 382.779C1295.98 389.948 1293.29 396.877 1289.95 403.458C1285.53 411.897 1280.46 419.93 1274.79 427.474C1264.87 441.55 1253.23 454.156 1240.19 464.961C1230.15 473.028 1221.38 478.372 1213.32 481.34C1203.72 484.841 1195.58 484.678 1189.32 480.89C1174.4 471.82 1180.93 448.992 1187.11 436.933C1193.29 424.873 1202.8 414.411 1211.93 404.359L1214.74 401.247C1224.84 389.966 1236.14 376.678 1242.63 361.282C1244.55 356.634 1246.07 352.007 1247.51 347.544C1248.7 343.818 1249.83 340.316 1251.15 337.02C1254.15 329.568 1259.53 319.883 1268.14 315.953L1268.84 315.645C1273.02 314.06 1277.54 313.839 1281.84 315.01C1286.14 316.18 1290.01 318.69 1292.97 322.218C1297.56 327.848 1300.42 335.894 1301.43 346.151C1301.63 347.953 1301.74 349.816 1301.82 351.639C1302.12 362.196 1300.8 372.735 1297.92 382.841L1297.98 382.779Z" fill="black"/>
<path d="M1265.05 376.473C1261.88 376.552 1258.82 377.804 1256.41 380.015C1253.83 382.653 1251.63 385.698 1249.91 389.044C1249.12 390.416 1248.29 391.849 1247.41 393.139C1245.6 395.442 1243.68 397.643 1241.65 399.732C1237.97 403.642 1233.42 408.494 1229.5 413.408C1223.13 421.454 1220.48 427.248 1221.42 431.159C1221.69 432.183 1222.2 433.118 1222.9 433.876C1223.6 434.635 1224.47 435.193 1225.43 435.499C1229.4 437.117 1233.92 436.584 1238.87 433.861C1243.63 430.99 1247.93 427.319 1251.6 422.99C1258.03 415.481 1263.85 407.399 1268.99 398.831L1269.49 398.032C1271.35 395.352 1272.74 392.335 1273.6 389.126C1274.04 387.414 1274.09 385.61 1273.73 383.874C1273.37 382.138 1272.61 380.525 1271.52 379.176C1270.69 378.26 1269.68 377.545 1268.56 377.078C1267.45 376.612 1266.25 376.406 1265.05 376.473ZM1271.58 388.758C1270.76 391.707 1269.46 394.479 1267.74 396.947L1267.24 397.746C1262.16 406.205 1256.41 414.191 1250.06 421.618C1246.54 425.782 1242.41 429.315 1237.83 432.08C1235.44 433.516 1232.76 434.31 1230.02 434.394C1228.65 434.407 1227.29 434.143 1226.01 433.616C1225.34 433.422 1224.73 433.052 1224.23 432.54C1223.74 432.028 1223.37 431.391 1223.16 430.688C1222.42 427.515 1225.08 422.171 1230.84 414.78C1234.68 409.927 1239.21 405.096 1242.86 401.226C1245.02 399.068 1247.05 396.771 1248.95 394.347C1249.85 392.975 1250.69 391.521 1251.5 390.109C1253.12 386.949 1255.19 384.07 1257.62 381.571C1261.14 378.357 1266.92 377.19 1269.95 380.609C1270.81 381.718 1271.41 383.032 1271.69 384.44C1271.98 385.848 1271.94 387.307 1271.58 388.696V388.758Z" fill="black"/>
<path d="M406.909 231.355C398.885 255.923 387.884 279.898 377.249 303.013C366.095 327.234 354.577 352.15 346.533 378.255C327.566 438.816 333.517 496.143 362.486 531.583C373.525 545.096 387.443 555.271 401.111 565.119C439.871 593.25 478.132 617.962 519.963 611.493C527.46 610.155 534.867 608.294 542.136 605.924C546.916 604.491 551.869 602.996 556.784 601.829C576.922 597.1 598.077 597.591 618.542 598.062L627.104 598.246C657.282 598.799 687.844 597.755 717.946 595.155C729.637 594.151 740.983 592.841 751.234 587.968C760.43 583.607 768.243 576.585 774.828 570.361C796.272 550.071 820.422 518.889 813.664 485.619C808.5 460.129 785.041 439.062 750.966 429.255C741.751 426.593 732.171 424.628 722.899 422.703C704.604 418.936 685.694 415.026 669.146 405.751C636.011 387.324 611.957 346.233 604.796 295.929C599.747 260.264 602.531 223.493 605.219 187.929C605.891 179.126 606.582 170.035 607.138 161.088C609.48 123.499 609.711 85.7937 607.829 48.1749C607.062 32.7581 605.775 16.072 601.686 0.225159H599.767C603.932 16.0515 605.219 32.8195 605.987 48.2773C607.865 85.7937 607.634 123.396 605.295 160.883C604.739 169.81 604.048 178.901 603.376 187.684C600.688 223.37 597.885 260.264 602.992 296.195C610.229 347.134 634.648 388.758 668.263 407.512C685.157 416.93 704.22 420.861 722.649 424.669C731.883 426.573 741.424 428.559 750.582 431.179C783.966 440.802 806.888 461.296 811.917 486.008C818.464 518.316 794.736 548.863 773.657 568.784C767.187 574.926 759.528 581.806 750.62 586.064C740.618 590.794 729.503 592.083 717.984 593.087C687.94 595.666 657.455 596.71 627.315 596.158L618.772 595.973C598.192 595.503 576.941 595.011 556.553 599.802C551.581 600.949 546.628 602.443 541.81 603.897C534.615 606.24 527.286 608.08 519.867 609.404C478.727 615.772 440.831 591.264 402.379 563.359C388.94 553.593 375.003 543.478 364.118 530.171C335.61 495.365 329.793 438.714 348.549 378.848C356.65 352.969 368.149 328.012 379.265 303.873C389.919 280.717 400.939 256.783 409.002 232.01C434.285 154.209 430.004 71.8222 418.6 0.184204H416.681C427.777 71.6584 432.096 153.943 406.909 231.355Z" fill="black"/>
<path d="M631.826 140.143C631.98 180.375 632.134 222.039 636.722 262.229C638.526 278.055 641.176 294.742 648.24 309.503C654.556 322.77 664.385 334.87 680.089 348.731C704.949 370.679 730.002 384.601 754.786 390.109C793.834 398.81 835.415 387.304 868.646 378.07C912.378 365.95 966.822 350.86 1013.2 322.893C1026.83 314.704 1043.27 302.931 1049.41 284.709C1052.31 276.09 1052.94 265.853 1051.33 253.384C1047.74 225.315 1035.45 198.863 1023.57 173.27C1007.69 139.12 992.719 106.853 996.367 70.9009C999.054 44.4487 1011.9 20.9241 1026.49 0.286499H1024.07C1009.69 20.7603 997.192 44.2848 994.466 70.6756C990.742 107.303 1006.56 141.351 1021.84 174.253C1033.67 199.702 1045.88 226.011 1049.43 253.753C1050.96 265.873 1050.35 275.803 1047.51 284.095C1041.6 301.682 1025.53 313.168 1012.19 321.194C966.111 349.038 911.725 364.189 868.089 376.166C834.954 385.359 793.699 396.783 755.112 388.184C730.693 382.738 705.852 368.98 681.221 347.237C665.729 333.56 656.073 321.665 649.872 308.664C642.961 294.189 640.273 277.707 638.584 262.065C633.996 221.916 633.842 180.375 633.688 140.225C633.516 93.8316 633.324 46.3731 626.297 0.286499H624.378C631.461 46.2503 631.634 93.7496 631.826 140.143Z" fill="black"/>
<path d="M665.23 112.115C665.787 143.952 666.362 176.853 669.876 208.792C670.394 213.686 670.912 217.637 671.488 221.261C672.763 230.765 675.31 240.025 679.052 248.757C684.159 260.141 692.317 270.828 704.757 282.416C724.646 300.843 745.245 312.943 765.997 318.041C796.713 325.575 828.235 318.471 860.545 309.851C901.128 299.184 943.823 285.979 981.047 261.738C992.757 254.121 1005.39 244.273 1010.25 229.205C1012.57 221.977 1013.05 213.399 1011.74 202.978C1008.81 179.863 999.054 157.935 989.609 136.847C987.228 131.524 984.79 126.037 982.487 120.632C973.272 98.9296 965.209 75.4052 967.916 50.3246C969.932 32.2053 977.399 15.8262 987.478 0.163696H985.155C975.307 15.7238 968.012 32.0005 965.958 50.079C963.117 75.6508 971.352 99.5029 980.682 121.471C982.986 126.897 985.443 132.404 987.824 137.728C997.192 158.734 1006.89 180.456 1009.77 203.244C1011.05 213.317 1010.59 221.67 1008.36 228.529C1003.72 242.984 991.414 252.545 979.991 259.977C942.978 284.075 900.456 297.219 860.026 307.845C827.947 316.362 796.675 323.405 766.362 316.034C745.936 311.018 725.606 299.185 705.967 280.86C693.738 269.477 685.714 258.994 680.722 247.877C677.061 239.318 674.565 230.245 673.312 220.933C672.755 217.33 672.256 213.399 671.719 208.649C668.225 176.792 667.649 143.952 667.092 112.176C666.458 75.0776 665.767 37.1804 660.411 0.28656H658.491C663.905 37.0576 664.596 74.9957 665.23 112.115Z" fill="black"/>
<path d="M698.825 85.2531C699.651 108.307 700.515 132.159 702.914 155.356C703.318 159.45 703.701 162.562 704.124 165.593C705.112 173.336 707.049 180.907 709.883 188.114C713.723 197.634 720.173 206.827 729.445 216.183C744.189 231.088 760.718 241.428 777.208 246.055C802.165 253.057 828.043 247.795 852.463 241.817C893.142 231.826 924.702 218.395 948.91 200.767C957.876 194.235 967.513 185.944 971.103 173.884C972.896 167.007 973.244 159.792 972.12 152.755C969.855 134.616 962.521 117.356 955.61 100.67C953.691 96.0019 951.617 91.1496 949.736 86.3383C942.902 69.0173 936.912 50.2224 939.446 29.9532C940.913 19.4621 944.242 9.36542 949.256 0.204712H947.067C942.195 9.30426 938.941 19.2856 937.469 29.6461C934.877 50.3861 940.943 69.5087 947.893 86.9729C949.813 91.7638 951.732 96.6161 953.786 101.305C960.736 117.868 967.916 134.984 970.143 152.817C971.227 159.559 970.899 166.474 969.183 173.065C965.785 184.531 956.436 192.557 947.759 198.863C923.742 216.368 892.412 229.696 851.944 239.606C827.775 245.543 802.127 250.764 777.631 243.864C761.447 239.319 745.206 229.164 730.693 214.484C721.613 205.332 715.335 196.365 711.496 187.09C708.766 180.049 706.913 172.656 705.986 165.101C705.564 162.194 705.18 158.959 704.776 155.028C702.396 131.893 701.532 108.102 700.707 85.0688C699.689 56.8969 698.653 28.172 694.775 0.102356H692.855C696.906 28.2744 697.904 57.0401 698.825 85.2531Z" fill="black"/>
<path d="M733.246 61.2987C734.053 74.6476 734.897 88.4265 736.145 101.919C736.395 104.539 736.644 107.16 736.971 109.76C737.598 115.712 738.847 121.569 740.695 127.224C743.73 135.607 748.298 143.263 754.133 149.746C763.428 160.809 775.245 169.124 788.439 173.884C806.888 180.211 827.064 177.263 844.38 173.557C864.634 169.216 893.641 159.778 916.831 139.529C923.32 133.878 929.636 127.388 931.978 118.318C933.17 113.075 933.359 107.63 932.535 102.308C930.922 89.2045 926.181 76.6335 921.592 64.4721C920.037 60.3773 918.444 56.1188 917.004 51.9421C912.742 39.6578 908.692 24.9984 910.995 9.52014C911.485 6.36499 912.21 3.25671 913.165 0.225037H911.245C910.347 3.15387 909.66 6.15186 909.191 9.19263C906.81 25.1418 910.938 40.1082 915.296 52.6586C916.755 56.7534 918.348 61.1144 919.903 65.2296C924.453 77.2888 929.156 89.7982 930.73 102.574C931.514 107.623 931.344 112.788 930.231 117.766C928.024 126.303 921.938 132.507 915.699 137.953C892.719 157.853 863.923 167.23 843.977 171.53C826.911 175.174 807.041 178.102 788.996 171.919C776.122 167.252 764.592 159.129 755.515 148.333C749.869 142.045 745.446 134.627 742.5 126.508C740.692 121.001 739.475 115.293 738.871 109.494C738.564 106.914 738.295 104.314 738.046 101.714C736.798 88.2628 735.972 74.4838 735.166 61.1758C733.937 40.9272 732.69 20.3918 729.906 0.20459H727.986C730.751 20.4123 732.018 41.0091 733.246 61.2987Z" fill="black"/>
<path d="M769.28 48.4615C769.414 50.3042 769.549 52.1469 769.721 53.969C770.017 58.1542 770.614 62.309 771.507 66.3967C772.931 72.4576 775.384 78.1893 778.744 83.3081C784.019 91.3163 791.203 97.6775 799.554 101.735C809.46 106.464 821.459 107.631 836.221 105.338C855.419 102.349 873.503 92.2346 884.752 78.2715C888.685 73.951 891.474 68.5961 892.835 62.7523C893.38 59.1586 893.38 55.4948 892.835 51.9011C891.69 44.064 889.878 36.3544 887.421 28.868C886.327 25.1827 885.175 21.3746 884.234 17.6484C882.711 11.9868 881.828 6.15131 881.604 0.266113H879.684C879.898 6.3316 880.8 12.3471 882.372 18.1807C883.313 21.9684 884.465 25.7969 885.578 29.5027C888.022 36.8953 889.834 44.5084 890.992 52.2491C891.502 55.6398 891.502 59.0955 890.992 62.4861C889.675 67.9793 887.027 73.0065 883.313 77.0635C872.351 90.6581 854.651 100.526 835.972 103.434C821.574 105.686 809.921 104.56 800.361 99.9942C792.299 96.0493 785.378 89.8698 780.318 82.1C777.094 77.1774 774.739 71.6684 773.369 65.8438C772.504 61.8627 771.92 57.8181 771.622 53.7438C771.468 51.9216 771.334 50.0994 771.2 48.2567C770.009 32.2871 768.781 16.0718 766.535 0.163635H764.615C766.861 16.1537 768.09 32.41 769.28 48.4615Z" fill="black"/>
<path d="M803.317 16.5838C804.819 22.3748 808.033 27.4946 812.48 31.183C816.928 34.8714 822.372 36.9316 828.005 37.0576C833.644 36.9403 839.097 34.884 843.552 31.195C848.008 27.506 851.227 22.3814 852.731 16.5838C853.831 11.1297 853.955 5.50311 853.096 0H851.176C852.063 5.32617 851.965 10.7858 850.888 16.072C849.485 21.4193 846.503 26.1418 842.384 29.5386C838.266 32.9354 833.23 34.8256 828.024 34.9284C822.812 34.8104 817.776 32.9015 813.663 29.4857C809.551 26.0698 806.582 21.3294 805.198 15.9696C804.303 11.346 804.013 6.61261 804.334 1.90405C804.334 1.26935 804.334 0.634705 804.334 0H802.415C802.415 0.614197 802.415 1.22833 802.415 1.84259C802.074 6.77716 802.377 11.7383 803.317 16.5838Z" fill="black"/>
<path d="M391.877 393.303C387.746 393.751 383.723 394.978 379.994 396.927C373.294 400.899 368.706 409.211 366.729 421.188C361.718 451.367 372.738 485.926 395.525 511.273C414.319 532.525 441.061 548.495 474.964 559.141C496.983 566.041 516.315 568.927 534.034 567.945C547.895 567.187 561.66 563.973 574.963 560.902C583.41 558.854 592.145 556.909 600.822 555.517C619.789 552.487 639.371 552.405 658.3 552.323C669.818 552.323 681.605 552.323 693.239 551.525C705.544 550.788 718.522 549.273 730.156 543.192C742.768 536.599 751.676 524.765 753.365 512.481C758.51 474.891 716.429 462.156 691.281 454.54L690.129 454.192C675.52 449.749 661.736 443.218 648.394 436.892C640.043 432.92 631.404 428.702 622.554 425.222C564.328 401.595 502.57 389.146 446.341 389.146C428.113 389.042 409.905 390.431 391.877 393.303ZM647.626 438.632C661.064 444.979 674.867 451.551 689.611 456.035L690.762 456.383C715.297 463.815 756.379 476.263 751.465 512.051C749.852 523.783 741.367 534.982 729.311 541.288C717.984 547.205 705.237 548.699 693.124 549.477C681.605 550.173 669.722 550.235 658.28 550.276C639.294 550.276 619.655 550.44 600.534 553.49C591.8 554.882 583.046 556.93 574.56 558.895C561.314 561.966 547.684 565.14 533.919 565.897C516.45 566.86 497.329 564.014 475.501 557.176C441.925 546.672 415.471 530.805 396.888 510.086C374.542 485.108 363.715 451.244 368.61 421.7C369.916 413.838 373.122 403.478 380.935 398.872C384.46 397.038 388.263 395.887 392.166 395.473C460.643 384.151 544.363 395.719 621.882 427.166C630.655 430.606 639.313 434.701 647.626 438.652V438.632Z" fill="black"/>
<path d="M438.239 439.144C430.81 458.041 435.187 479.702 449.758 495.693C460.374 507.424 475.578 516.392 494.968 522.309C505.791 525.895 517.076 527.643 528.409 527.488C536.504 527.015 544.552 525.879 552.483 524.09C556.975 523.189 561.621 522.268 566.19 521.633C574.871 520.57 583.599 520.01 592.337 519.954H595.044C602.723 519.79 610.536 519.626 618.234 518.93C625.427 518.599 632.504 516.879 639.121 513.853C646.435 510.106 651.657 503.759 653.058 496.859C653.721 493.954 653.784 490.93 653.244 487.996C652.704 485.062 651.573 482.289 649.929 479.866C643.479 470.244 629.638 465.146 620.5 461.767C613.174 458.916 605.997 455.649 598.999 451.981C593.988 449.462 588.805 446.862 583.506 444.59C551.237 430.51 516.757 423.084 481.894 422.703C473.069 422.678 464.251 423.266 455.498 424.464C453.195 424.717 450.938 425.324 448.798 426.266C444.344 428.415 440.754 432.756 438.239 439.144ZM449.758 428.129C451.74 427.267 453.828 426.715 455.958 426.491C494.718 421.065 540.965 428.354 582.873 446.473C588.114 448.746 593.258 451.326 598.231 453.823C605.271 457.518 612.494 460.805 619.866 463.671C628.793 466.968 642.27 471.861 648.355 481.033C649.853 483.215 650.883 485.722 651.37 488.376C651.858 491.029 651.792 493.765 651.177 496.389C649.91 502.674 645.091 508.489 638.296 511.969C631.886 514.878 625.039 516.535 618.081 516.863C610.402 517.538 602.588 517.702 595.044 517.886H592.337C583.529 517.941 574.729 518.509 565.979 519.586C561.352 520.22 556.687 521.162 552.157 522.042C544.328 523.821 536.382 524.95 528.39 525.421C517.19 525.626 506.031 523.926 495.332 520.384C476.269 514.508 461.334 505.725 450.967 494.28C437.011 478.883 432.787 458.062 439.909 439.942C442.328 434.046 445.592 430.156 449.662 428.108L449.758 428.129Z" fill="black"/>
<path d="M537.336 487.605C540.972 487.085 544.525 486.038 547.895 484.493C551.888 482.753 554.038 480.562 554.499 477.798C554.96 475.034 553.789 472.516 551.005 469.609C543.019 461.235 531.347 456.239 518.139 455.523H517.121C509.75 455.523 502.57 459.781 500.151 465.76C498.231 470.489 499.537 475.587 503.875 480.091C510.422 486.848 529.408 488.609 537.336 487.605ZM501.898 466.497C504.106 461.112 511.19 457.202 518.043 457.57C530.771 458.246 542.001 463.057 549.661 471.062C551.946 473.478 552.925 475.567 552.598 477.45C552.272 479.334 550.506 481.156 547.165 482.61C543.958 484.073 540.581 485.072 537.125 485.578C535.557 485.754 533.98 485.836 532.403 485.824C523.495 485.824 510.095 483.654 505.219 478.576C501.437 474.625 500.285 470.448 501.898 466.497Z" fill="black"/>
<path d="M452.157 171.714C450.238 184.776 447.665 198.064 445.227 210.922C438.738 245.133 432.019 280.533 435.168 315.707C435.859 323.425 437.203 332.25 441.964 339.047C447.608 347.114 456.957 350.901 464.482 353.379C488.479 361.015 512.111 360.524 531.04 351.966C540.139 347.871 546.954 342.364 551.255 335.587C556.707 327.049 558.185 316.567 558.934 307.456C559.842 292.672 559.925 277.843 559.183 263.048C558.818 251.869 558.454 240.301 558.838 228.959C559.778 201.606 565.154 174.273 570.356 147.862C573.255 133.1 576.269 117.827 578.477 102.676C584.447 61.7285 582.738 27.8852 573.274 0.306885H571.22C580.819 27.7828 582.546 61.4419 576.576 102.451C574.368 117.54 571.373 132.773 568.475 147.494C563.253 174.11 557.878 201.422 556.956 228.938C556.572 240.363 556.956 251.951 557.302 263.191C558.041 277.904 557.964 292.651 557.071 307.354C556.361 316.198 554.94 326.353 549.719 334.481C545.63 340.869 539.122 346.111 530.349 350.082C511.823 358.436 488.652 358.927 465.077 351.413C457.84 349.1 448.855 345.496 443.557 337.9C439.084 331.513 437.798 323.036 437.145 315.584C434.016 280.778 440.716 245.461 447.166 211.392C449.623 198.535 452.138 185.227 454.096 172.123C462.568 115.068 461.267 56.8469 450.257 0.286438H448.337C459.322 56.7122 460.616 114.795 452.157 171.714Z" fill="black"/>
<path d="M493.777 1.22839C495.121 9.41791 498.519 16.9319 501.821 24.1796C502.979 27.3098 504.799 30.1125 507.139 32.3691C508.448 33.561 510.094 34.2493 511.814 34.3236C513.534 34.3978 515.227 33.8537 516.622 32.7786C519.483 30.1169 519.156 25.6537 518.446 21.6613L514.703 0.245667H512.783L516.622 22.0298C517.218 25.4694 517.544 29.257 515.413 31.243C514.356 32.0015 513.093 32.3649 511.821 32.2759C510.55 32.187 509.342 31.6509 508.387 30.7516C506.291 28.6878 504.657 26.1478 503.607 23.3196C500.362 16.1947 497.022 8.82416 495.736 0.921204C495.736 0.695984 495.736 0.470886 495.736 0.245667H493.816C493.701 0.552795 493.72 0.900818 493.777 1.22839Z" fill="black"/>
<path d="M469.339 46.7622C473.803 117.677 468.198 188.903 452.714 258.032L452.138 260.612C449.854 270.705 447.512 281.086 447.627 291.732C447.8 304.753 452.119 316.178 459.491 323.098C464.041 327.336 470.107 330.387 478.573 332.659C496.561 337.471 512.073 334.031 520.116 323.405C525.453 316.341 526.97 307.026 528.064 298.017C529.753 284.034 530.924 269.723 532.057 255.882C534.38 227.546 536.78 198.269 543.787 170.445C545.707 163.238 547.761 156.113 549.834 149.009C551.907 141.904 554.096 134.677 555.92 127.491C566.265 85.7952 566.384 41.9633 556.265 0.204712H554.345C564.518 41.7693 564.445 85.4324 554.134 126.958C552.33 134.165 550.18 141.392 548.087 148.394C545.994 155.396 543.844 162.726 542.021 169.912C534.975 197.921 532.556 227.239 530.233 255.698C529.101 269.518 527.93 283.809 526.221 297.751C525.185 306.432 523.725 315.482 518.696 322.136C507.523 336.897 485.58 332.372 479.111 330.673C470.952 328.482 465.154 325.575 460.835 321.542C453.866 315.031 449.777 304.16 449.623 291.711C449.508 281.474 451.831 271.074 454.077 261.001L454.653 258.441C470.174 189.11 475.798 117.678 471.336 46.5576C470.621 30.9125 468.434 15.3835 464.808 0.204712H462.889C466.824 15.3553 468.36 31.3659 469.339 46.7622Z" fill="black"/>
<path d="M486.406 66.3762C486.823 81.4008 486.451 96.4385 485.292 111.419L481.453 175.113C480.589 189.772 479.533 207.994 487.308 222.674C488.232 224.694 489.677 226.392 491.474 227.567C495.582 229.88 500.439 227.198 503.626 223.923C512.802 214.464 515.547 200.705 518.216 187.377C518.811 184.408 519.406 181.46 520.135 178.573C523.457 163.995 529.081 149.91 534.514 136.151C541.291 119.117 548.279 101.489 550.928 82.9191C554.768 55.8322 549.488 29.0524 541.56 0.184204H539.64C547.588 29.0319 552.925 55.7502 549.104 82.612C546.494 101.038 539.506 118.441 532.825 135.373C527.373 149.132 521.71 163.381 518.35 178.122C517.697 181.009 517.102 183.998 516.43 186.967C513.82 199.988 511.113 213.46 502.359 222.469C499.671 225.253 495.64 227.587 492.453 225.786C490.988 224.781 489.812 223.364 489.055 221.691C481.51 207.564 482.585 189.67 483.449 175.277L487.289 111.603C488.45 96.527 488.822 81.3939 488.402 66.2739C487.385 43.7526 482.892 21.7637 477.344 0.204712H475.425C480.858 21.8251 485.407 43.8959 486.406 66.3762Z" fill="black"/>
<path d="M496.753 36.5048C497.271 37.7128 497.809 38.9208 498.346 40.1287C500.956 45.4067 502.936 51.0124 504.24 56.8149C505.029 62.2314 505.293 67.72 505.027 73.194C504.873 82.9191 504.72 92.9717 510.479 100.649L510.844 101.141L511.42 101.018C519.963 99.1139 527.104 90.4944 530.502 77.9644C535.666 58.9646 532.748 39.064 529.907 19.7572C528.966 13.3284 527.987 6.79736 527.334 0.266174H525.415C526.087 6.92017 527.047 13.5536 528.006 20.0643C530.809 39.1255 533.766 58.8419 528.659 77.3912C525.53 88.8975 519.195 96.8823 511.612 98.8682C506.659 91.8457 506.793 82.7962 506.947 73.2144C507.212 67.6233 506.935 62.0179 506.121 56.4873C504.784 50.5184 502.759 44.7487 500.093 39.3097C499.556 38.1017 499.018 36.9144 498.5 35.7064C493.724 24.2632 489.871 12.4069 486.982 0.266174H485.062C488.001 12.6735 491.912 24.7955 496.753 36.5048Z" fill="black"/>
<path d="M841.558 912.09C846.015 893 849.527 873.673 852.078 854.19C854.574 837.217 857.166 819.671 861.063 802.719C871.026 759.273 888.611 728.112 913.357 710.115C929.617 698.281 949.198 692.242 966.207 687.901C1013.89 675.74 1063.58 671.174 1111.61 666.772L1179.07 660.63C1229.23 656.023 1286.09 650.803 1335.41 674.777C1357.34 685.444 1376.69 701.393 1395.4 716.953L1439.9 753.806V751.206L1396.59 715.316C1377.78 699.755 1358.33 683.643 1336.22 672.894C1307 658.705 1275.27 654.631 1243.82 654.631C1221.71 654.631 1199.67 656.678 1178.9 658.562L1111.44 664.704C1063.44 669.106 1013.53 673.672 965.766 685.874C948.584 690.256 928.791 696.357 912.282 708.395C887.133 726.679 869.279 758.249 859.201 802.207C855.361 819.241 852.693 836.828 850.178 853.862C847.356 872.923 844.419 892.64 839.696 911.558C829.157 953.166 809.742 991.614 782.968 1023.9H785.521C811.926 991.656 831.091 953.418 841.558 912.09Z" fill="black"/>
<path d="M804.622 831.443C806.158 824.953 807.56 818.299 808.942 811.85C813.53 790.189 818.291 767.77 828.139 747.971C846.914 710.115 880.318 688.372 904.929 676.784C938.006 661.285 974.232 654.652 1005.6 649.676C1040.62 644.108 1076.4 639.685 1111.07 635.345C1168.3 628.281 1227.47 621.013 1286.04 623.265C1344.61 625.517 1396.4 637.597 1439.87 659.217V656.965C1396.35 635.549 1344.72 623.511 1286.11 621.218C1278.59 620.931 1271.06 620.788 1263.54 620.788C1212.24 620.788 1160.79 627.135 1110.76 633.318C1076.21 637.576 1040.37 641.999 1005.31 647.65C973.829 652.645 937.449 659.299 904.161 674.9C879.204 686.611 845.398 708.641 826.373 747.03C816.429 767.053 811.649 789.595 807.022 811.399C805.659 817.828 804.258 824.482 802.722 830.952C785.499 903.465 750.893 969.955 702.3 1023.9H704.949C753.134 969.951 787.463 903.666 804.622 831.443Z" fill="black"/>
<path d="M1225.2 101.571C1224.02 119.286 1223.77 137.058 1224.45 154.803C1225.05 182.75 1225.66 211.659 1218.58 238.868C1207.71 280.635 1180.18 314.233 1153.31 346.725C1136.22 367.485 1118.58 388.962 1105.12 412.63C1090.97 437.506 1080.16 466.886 1072.23 502.449C1068.78 517.927 1066.15 534.306 1070.31 549.354C1074.94 565.734 1088.3 580.434 1106.04 588.46C1122.74 596.055 1141.35 597.591 1157.34 598.082C1202.95 599.474 1249.14 593.087 1293.79 586.863C1341.65 580.229 1390.97 573.391 1439.69 576.216V574.169C1390.78 571.343 1341.4 578.264 1293.49 584.836C1248.89 590.978 1202.8 597.427 1157.34 596.035C1141.54 595.543 1123.15 593.987 1106.73 586.576C1089.45 578.775 1076.57 564.628 1072.18 548.761C1067.88 533.467 1070.89 517.088 1074.1 502.92C1082.03 467.582 1092.7 438.386 1106.73 413.695C1120.17 390.191 1137.72 368.775 1154.73 348.056C1181.6 315.4 1209.34 281.638 1220.32 239.421C1227.48 211.925 1226.87 182.852 1226.27 154.741C1225.6 137.058 1225.84 119.348 1227 101.694C1230.13 65.6728 1241.04 30.9139 1258.87 0.143188H1256.63C1239.02 30.9489 1228.27 65.6455 1225.2 101.571Z" fill="black"/>
<path d="M1313.14 558.813C1327 562.908 1341.75 559.858 1354.74 557.094L1439.85 538.995V536.947L1354.36 555.128C1341.57 557.851 1327.08 560.943 1313.68 556.889C1301.09 553.081 1289.05 540.51 1290.64 526.055C1291.83 515.675 1299.47 507.485 1306.23 500.258C1371.37 430.545 1416.81 354.464 1439.77 278.322V271.36C1417.56 349.304 1371.6 427.392 1304.87 498.825C1297.9 506.278 1290.01 514.733 1288.72 525.81C1287.09 541.308 1299.84 554.78 1313.14 558.813Z" fill="black"/>
<path d="M1282.1 41.3981C1288.65 27.2082 1296 13.4521 1304.1 0.204712H1301.78C1293.93 13.1775 1286.79 26.624 1280.39 40.4767C1271.31 59.7426 1262.81 80.5646 1261.87 102.492C1260.85 126.692 1270.54 149.234 1286.59 159.819C1294.96 165.388 1304.75 167.865 1314.24 170.261C1324.2 172.779 1334.49 175.379 1342.86 181.583C1350.29 187.09 1355.8 195.136 1361.14 202.937C1363.81 206.827 1366.55 210.84 1369.55 214.525C1378.07 225.11 1392.89 235.47 1406.58 229.819C1415.1 226.298 1420.51 217.535 1423.86 211.147C1431.53 196.815 1436.2 180.948 1439.92 164.937V156.072C1435.93 174.785 1431 193.437 1422.18 210.144C1419 216.286 1413.83 224.639 1405.91 227.915C1393.16 233.177 1379.14 223.267 1371 213.194C1368.09 209.57 1365.36 205.578 1362.71 201.729C1357.28 193.805 1351.67 185.616 1343.97 179.904C1335.3 173.475 1324.78 170.834 1314.7 168.275C1305.37 165.92 1295.73 163.463 1287.63 158.038C1272.16 147.801 1262.83 125.914 1263.81 102.451C1264.71 81.056 1273.14 60.4592 1282.1 41.3981Z" fill="black"/>
<path d="M1375.48 519.156C1370.08 516.023 1367.24 509.942 1365.88 505.397C1360.33 487.831 1366.8 470.346 1371.16 461.481C1377.32 448.951 1386.34 438.059 1395.06 427.535L1397.25 424.894C1412.61 406.222 1428.48 385.298 1439.98 362.264V357.822C1428.46 382.063 1411.93 404.031 1395.83 423.543L1393.64 426.163C1384.85 436.789 1375.75 447.784 1369.47 460.539C1364.98 469.691 1358.3 487.769 1364.07 506.052C1365.63 510.946 1368.72 517.497 1374.65 520.957C1379.24 523.639 1384.63 523.906 1389.74 523.824C1407.03 523.488 1424.1 519.58 1440 512.317V510.004C1424.12 517.406 1407.03 521.386 1389.7 521.715C1384.75 521.858 1379.68 521.612 1375.48 519.156Z" fill="black"/>
<path d="M1354.21 0.204712H1351.98C1347.42 8.1947 1343.49 16.5691 1340.21 25.2442C1334.55 40.6201 1329.23 63.7964 1336.2 86.9114C1340.84 102.218 1350.29 115.346 1362.96 124.072C1369.39 128.799 1376.92 131.535 1384.71 131.974C1404.24 132.322 1418 113.855 1422.99 105.85C1430.45 93.3242 1436.15 79.701 1439.9 65.4139V58.1662C1435.57 74.5453 1430.31 90.6172 1421.4 104.724C1416.58 112.442 1403.43 130.357 1384.75 129.927C1377.31 129.496 1370.13 126.874 1364 122.352C1351.76 113.797 1342.62 101.041 1338.1 86.1949C1331.28 63.6736 1336.51 40.9886 1342.05 25.9199C1345.42 16.9974 1349.48 8.39496 1354.21 0.204712Z" fill="black"/>
<path d="M1390.55 0.204712H1388.63L1387.13 5.50745C1383.29 19.225 1378.53 36.2182 1382.52 52.1674C1382.87 53.9406 1383.62 55.5981 1384.69 56.9991C1386.77 59.4151 1390.45 60.1112 1394.69 59.0466C1411.17 54.5627 1419.21 35.0103 1423.07 19.3887C1423.61 17.239 1424.1 15.0687 1424.62 12.8985C1425.6 8.68091 1426.54 4.44275 1427.77 0.28656H1425.85C1424.74 4.38129 1423.78 8.35333 1422.84 12.3867C1422.32 14.5774 1421.82 16.7271 1421.28 18.8768C1417.56 33.9661 1409.76 52.843 1394.29 57.0606C1392.6 57.511 1388.53 58.3094 1386.19 55.6888C1385.33 54.5292 1384.74 53.168 1384.46 51.7169C1380.62 36.4229 1385.29 19.6548 1389.05 6.18304L1390.55 0.204712Z" fill="black"/>
<path d="M1151.79 273.838C1177.11 267.368 1194.52 223.226 1200.84 198.085C1207.67 170.936 1208.63 139.836 1203.7 105.645C1200.17 81.1992 1189.42 38.1837 1157.03 24.9576C1151.14 22.5838 1144.88 21.3832 1138.58 21.4155C1118.4 21.4155 1097.27 33.0447 1084.5 52.761C1070.2 74.8113 1065.63 104.867 1071.62 137.379C1076.96 166.227 1089.36 192.884 1101.34 218.661C1102.84 221.855 1104.37 225.56 1105.98 229.491C1114.83 250.927 1126.93 280.185 1151.79 273.838ZM1073.5 137.052C1070.1 118.625 1067.19 83.1443 1086.08 53.9895C1102.37 28.868 1132.57 17.2389 1156.34 26.9435C1187.82 39.8011 1198.32 82.0182 1201.8 106.034C1206.69 139.939 1205.64 170.752 1198.98 197.634C1192.79 222.203 1175.79 265.587 1151.35 271.831C1149.27 272.379 1147.15 272.66 1145.01 272.671C1125.93 272.671 1115.93 248.512 1107.75 228.734C1106.12 224.803 1104.56 221.056 1103.07 217.821C1091.12 192.167 1078.78 165.654 1073.5 137.052Z" fill="black"/>
<path d="M1145.65 208.035C1148.47 207.946 1151.24 207.232 1153.8 205.938C1156.35 204.645 1158.62 202.8 1160.47 200.521C1172.12 186.189 1169.76 155.478 1168.36 137.052C1168.16 134.513 1167.99 132.241 1167.88 130.316C1167.05 115.984 1165.46 104.273 1160.43 93.6882C1154.42 81.0353 1143.8 72.7025 1132.75 71.945H1131.25C1128.71 71.8672 1126.19 72.4802 1123.93 73.7262C1119.11 76.5516 1116.98 82.4686 1115.64 87.3209C1112.49 98.7657 1110.98 111.89 1110.84 128.535C1110.84 137.584 1111.28 183.671 1128.69 201.36C1130.91 203.696 1133.57 205.499 1136.49 206.65C1139.42 207.802 1142.54 208.273 1145.65 208.035ZM1112.76 128.494C1112.89 111.992 1114.39 99.0933 1117.48 87.8327C1118.71 83.3694 1120.67 77.9234 1124.85 75.5484C1127.24 74.3096 1129.9 73.7994 1132.53 74.0743C1144.94 74.9343 1154.15 85.2939 1158.62 94.7119C1163.5 104.949 1165.05 116.435 1165.88 130.521C1165.98 132.466 1166.17 134.759 1166.36 137.298C1167.72 155.397 1170.05 185.677 1158.93 199.272C1157.25 201.335 1155.19 203.008 1152.88 204.184C1150.57 205.361 1148.05 206.016 1145.49 206.11C1142.65 206.315 1139.79 205.874 1137.12 204.815C1134.44 203.756 1132.01 202.104 1129.98 199.968C1112.84 182.422 1112.72 133.94 1112.76 128.494Z" fill="black"/>
<path d="M763.386 868.419C766.995 856.421 770.201 844.035 773.292 832.037C781.067 802.022 789.092 770.984 804.008 743.795C828.216 699.366 872.524 662.759 932.132 637.924C935.856 636.382 939.619 634.853 943.42 633.338C971.256 622.098 1000.03 610.489 1016.52 584.549C1025.18 570.934 1029.31 554.76 1032.52 540.674C1039.62 509.328 1044.29 477.41 1046.47 445.245C1047.68 427.412 1043.94 416.213 1035.36 411.954C1033.07 410.837 1030.58 410.271 1028.06 410.296C1021.88 410.296 1015.66 413.285 1011.01 415.885C966.207 441.048 934.685 485.824 904.199 529.126C872.85 573.637 840.445 619.682 793.718 643.78C754.863 663.865 709.249 666.69 669.031 669.208C584.044 674.511 487.73 680.51 405.258 637.699C380.858 625.026 358.128 608.155 336.147 591.858C316.259 577.097 295.698 561.823 273.89 549.662C227.903 524.426 176.47 512.629 124.822 515.47C81.2692 517.426 38.6593 529.618 0.0384521 551.177V553.49C83.7584 505.766 188.423 504.353 272.892 551.545C294.585 563.645 315.126 578.878 334.938 593.599C356.957 609.978 379.745 626.869 404.298 639.603C487.212 682.598 583.794 676.62 669.012 671.317C709.326 668.799 755.208 665.933 794.409 645.684C841.558 621.32 874.117 575.07 905.601 530.355C935.952 487.237 967.34 442.645 1011.78 417.749C1017.93 414.289 1026.95 410.153 1034.4 413.838C1042.19 417.708 1045.57 428.17 1044.42 445.122C1042.25 477.183 1037.6 508.999 1030.52 540.244C1027.35 554.145 1023.28 570.115 1014.8 583.443C998.651 608.852 970.162 620.296 942.594 631.455C938.755 632.99 934.915 634.505 931.287 636.061C871.295 661.06 826.642 697.974 802.203 742.792C787.249 770.227 779.167 801.388 771.488 831.546C768.397 843.502 765.191 855.889 761.601 867.846C746.819 916.84 718.023 982.172 662.926 1023.9H666.19C720.25 981.803 748.739 917.126 763.386 868.419Z" fill="black"/>
<path d="M735.992 855.377C738.43 844.158 740.311 832.59 742.115 821.391C745.629 799.627 749.257 777.106 757.339 756.489C771.296 720.905 799.094 688.802 842.326 658.357C857.262 647.834 873.042 638.068 888.285 628.609C909.268 615.608 930.961 602.157 950.849 586.556C984.176 560.431 1000.88 532.914 1000.49 504.783V504.025L999.784 503.821C996.538 502.869 993.186 502.387 989.82 502.387C968.473 502.387 949.237 521.531 932.88 541.022C875.288 609.609 810.631 676.825 727.237 704.096C696.387 714.19 662.062 719.226 615.892 720.475C507.715 723.3 424.091 702.171 360.221 655.839C350.872 649.042 341.753 641.507 332.941 634.28C325.032 627.79 316.873 621.054 308.541 614.871C259.261 578.182 199.807 557.544 136.609 555.271C89.8583 553.336 43.2684 562.213 0.0384521 581.294V583.71C98.6748 539.629 219.657 551.238 307.447 616.591C315.721 622.733 323.88 629.469 331.77 635.959C340.601 643.227 349.739 650.741 359.146 657.559C423.361 704.157 507.35 725.409 615.931 722.563C662.235 721.355 696.714 716.278 727.756 706.184C811.572 678.77 876.536 611.308 934.263 542.516C952.558 520.691 974.462 499.337 998.536 505.663C998.536 532.812 982.141 559.489 949.64 584.979C929.847 600.498 908.193 613.929 887.267 626.889C871.909 636.368 856.206 646.155 841.193 656.719C797.634 687.43 769.606 719.779 755.496 755.772C747.337 776.594 743.671 799.238 740.138 821.104C738.334 832.283 736.471 843.83 734.033 854.988C718.955 922.728 681.851 982.575 629.311 1023.9H632.517C684.396 982.327 721.002 922.71 735.992 855.377Z" fill="black"/>
<path d="M658.261 968.27C675.078 941.429 688.516 909.981 701.878 866.29C709.768 840.472 716.065 811.01 702.799 787.752C688.382 762.528 658.127 757.737 637.393 757.737C631.98 757.737 627.2 758.065 623.514 758.434C570.97 763.716 532.71 779.358 503.127 807.694C446.014 862.379 409.443 942.186 403.434 1023.88H405.354C411.363 942.76 447.703 863.526 504.413 809.209C533.67 781.201 571.604 765.702 623.706 760.46C641.137 758.72 683.582 757.983 701.206 788.796C714.049 811.318 707.848 840.268 700.092 865.635C686.788 909.142 673.408 940.426 656.706 967.124C643.193 989.174 626.026 1008.41 606.044 1023.9H609.269C628.523 1008.55 645.104 989.724 658.261 968.27Z" fill="black"/>
<path d="M661.793 864.816C663.045 858.974 663.644 852.995 663.579 847.003C662.561 819.998 638.315 800.466 615.47 797.191C612.193 796.721 608.89 796.488 605.583 796.494C587.73 796.494 568.475 803.169 547.089 816.723C479.629 859.472 435.129 940.323 432.614 1023.9H434.534C437.049 941.019 481.184 860.864 548.068 818.483C573.024 802.637 595.044 796.331 615.259 799.218C637.317 802.391 660.718 821.165 661.697 847.085C661.761 852.919 661.174 858.74 659.95 864.427C647.169 929.667 610.862 986.939 558.857 1023.9H562.293C613.467 986.552 649.12 929.551 661.793 864.816Z" fill="black"/>
<path d="M557.551 985.284C570.356 972.549 583.602 959.405 593.758 943.701C601.744 931.417 611.035 912.069 610.133 890.183C610.139 884.37 608.695 878.661 605.948 873.64C601.571 866.31 592.913 861.867 583.41 861.867C582.47 861.867 581.491 861.868 580.55 861.99C570.625 862.932 561.698 868.03 554.269 872.903C529.72 889.224 508.993 911.313 493.672 937.483C478.35 963.652 468.839 993.209 465.864 1023.9H467.784C473.543 963.848 507.081 906.234 555.248 874.643C562.485 869.893 571.181 864.918 580.703 864.038C590.59 863.096 599.901 867.314 604.316 874.746C606.857 879.467 608.182 884.821 608.156 890.265C609.077 911.599 599.939 930.475 592.126 942.535C582.086 958.054 568.916 971.198 556.188 983.789L515.874 1023.9H518.696L557.551 985.284Z" fill="black"/>
<path d="M525.088 974.064C551.043 978.65 565.269 934.673 568.571 917.352C568.885 916.37 568.969 915.321 568.815 914.296C568.661 913.272 568.274 912.304 567.688 911.476C567.129 910.977 566.484 910.601 565.789 910.369C565.094 910.137 564.362 910.054 563.637 910.124H563.464C554 910.124 543.979 914.711 535.244 922.798C525.645 931.704 508.252 951.85 511.554 964.339C512.917 969.437 517.467 972.713 525.088 974.064ZM536.607 924.333C544.996 916.574 554.576 912.254 563.483 912.172C564.487 912.014 565.508 912.286 566.324 912.929C567.15 913.81 566.958 915.529 566.689 917.024C563.694 932.687 549.719 976.398 525.415 972.119C518.58 970.911 514.549 968.147 513.416 963.93C510.249 951.85 529.005 931.274 536.511 924.333H536.607Z" fill="black"/>
<path d="M357.264 768.2C364.943 779.092 373.486 790.107 385.101 796.863C392.989 801.163 401.53 803.936 410.326 805.053C441.656 810.048 471.009 802.33 490.821 783.862C496.58 778.539 499.94 773.625 501.495 768.2C503.223 762.324 502.589 754.318 497.329 749.609C495.094 747.818 492.597 746.435 489.938 745.515C456.496 731.859 423.188 716.524 390.975 699.899L390.246 699.51C381.684 695.087 372.814 690.522 363.254 689.027C361.556 688.767 359.843 688.637 358.128 688.638C353.947 688.545 349.791 689.359 345.914 691.031C342.036 692.702 338.517 695.197 335.571 698.363C332.773 701.626 330.782 705.581 329.776 709.87C328.771 714.16 328.783 718.649 329.812 722.932C332.269 735.073 341.926 747.787 350.449 759.027C352.945 762.262 355.191 765.354 357.264 768.2ZM336.973 699.776C343.001 692.897 352.964 689.539 362.985 691.116C372.238 692.569 380.973 697.073 389.401 701.352L390.13 701.741C422.401 718.387 455.747 733.763 489.247 747.419C491.706 748.256 494.02 749.515 496.1 751.145C499.94 754.646 501.476 761.382 499.671 767.524C498.212 772.52 494.987 777.188 489.554 782.265C474.042 796.72 452.541 804.438 428.813 804.438C422.721 804.428 416.638 803.935 410.614 802.964C402.038 801.864 393.712 799.154 386.022 794.959C374.734 788.407 366.268 777.597 358.8 766.869C356.88 764.002 354.462 760.89 351.966 757.615C343.577 746.559 334.074 734.049 331.713 722.379C330.768 718.442 330.754 714.315 331.672 710.371C332.59 706.426 334.411 702.786 336.973 699.776Z" fill="black"/>
<path d="M386.137 770.022C394.258 776.41 409.846 780.115 420.885 780.873C425.574 781.423 430.315 780.617 434.611 778.539C436.824 777.398 438.676 775.592 439.941 773.345C441.206 771.098 441.829 768.505 441.733 765.886C441.355 763.141 440.294 760.553 438.661 758.393C432.019 748.647 421.173 743.467 410.652 739.004C405.681 736.613 400.337 735.224 394.891 734.909C392.42 734.883 389.969 735.399 387.692 736.424C385.068 737.596 382.791 739.503 381.101 741.943C379.411 744.383 378.372 747.266 378.094 750.285C377.76 754.032 378.323 757.807 379.73 761.259C381.137 764.711 383.341 767.726 386.137 770.022ZM380.013 750.428C380.224 747.75 381.125 745.185 382.615 743.018C384.106 740.85 386.128 739.164 388.46 738.144C395.179 735.052 403.07 737.898 409.942 740.826C420.213 745.187 430.771 750.224 437.107 759.519C438.546 761.389 439.488 763.638 439.833 766.029C439.891 768.241 439.342 770.423 438.254 772.307C437.167 774.191 435.587 775.695 433.709 776.635C430.608 778.23 427.185 778.983 423.745 778.825C422.881 778.825 421.96 778.825 421 778.825C412.016 778.211 395.621 774.935 387.289 768.384C384.74 766.297 382.734 763.55 381.461 760.404C380.188 757.258 379.689 753.817 380.013 750.408V750.428Z" fill="black"/>
<path d="M365.615 944.213C373.064 917.884 373.429 896.939 366.729 880.192C362.889 870.671 356.919 862.584 350.968 855.275C346.891 850.03 342.395 845.173 337.529 840.759C334.477 838.118 331.175 835.763 327.931 833.47C325.684 831.853 323.381 830.194 321.192 828.475C299.192 811.092 285.331 783.903 274.062 759.805L273.563 758.72C270.512 751.629 266.835 744.862 262.583 738.512C257.52 731.601 251.202 725.849 244.009 721.6C236.815 717.351 228.892 714.691 220.713 713.78C218.646 713.552 216.57 713.436 214.493 713.432C200.055 713.508 186.04 718.636 174.601 728.03C170.219 731.551 166.378 735.778 163.217 740.56C159.274 747.054 156.483 754.264 154.981 761.832C152.031 775.277 151.618 789.214 153.767 802.831C155.916 816.448 160.583 829.473 167.498 841.148C170.588 846.307 174.121 851.221 177.538 855.991C180.149 859.595 182.836 863.321 185.217 867.129C200.229 890.491 207.929 918.318 207.217 946.629C206.393 974.617 197.393 1001.63 181.473 1023.9H183.873C199.525 1001.53 208.364 974.57 209.194 946.67C209.914 917.924 202.1 889.67 186.868 865.942C184.372 862.093 181.684 858.346 179.074 854.722C175.676 849.993 172.163 845.12 169.129 840.022C155.552 816.84 151.135 788.867 156.843 762.221C158.288 754.933 160.983 747.992 164.791 741.747C167.826 737.131 171.525 733.054 175.753 729.668C188.49 719.184 204.481 714.238 220.502 715.827C228.431 716.701 236.114 719.269 243.093 723.377C250.073 727.486 256.204 733.051 261.124 739.741C265.286 745.996 268.891 752.651 271.893 759.621L272.412 760.706C283.757 785.029 297.752 812.464 320.098 830.113C322.325 831.873 324.667 833.552 326.913 835.17C330.062 837.422 333.306 839.776 336.301 842.356C341.11 846.713 345.555 851.508 349.585 856.688C355.441 863.894 361.353 871.818 365.039 881.072C371.566 897.451 371.163 917.925 363.849 943.701C355.604 972.672 342.604 999.853 325.454 1023.98H327.873C344.703 999.931 357.475 972.938 365.615 944.213Z" fill="black"/>
<path d="M302.033 1023.9H304.548C316.587 1008.75 325.718 991.226 331.425 972.324C338.643 947.489 338.278 921.569 330.407 899.355C322.536 877.141 307.37 858.858 292.838 841.209C280.475 826.284 267.708 810.826 259.319 792.973C258.11 790.393 256.977 787.711 255.864 785.111C253.741 779.787 251.258 774.634 248.434 769.694C243.212 761.075 236.378 755.363 229.237 753.663C227.616 753.282 225.962 753.089 224.303 753.09C212.784 753.09 202.514 762.446 198.098 772.581C193.529 783.064 192.819 796.085 195.929 812.403C199.308 830.031 205.816 847.024 212.093 863.464C219.273 882.259 226.722 901.689 229.371 921.979C232.212 943.64 229.544 965.65 226.568 984.301C224.38 997.937 221.519 1011.74 216.182 1023.9H218.294C223.477 1011.76 226.299 998.121 228.469 984.649C231.464 965.834 234.228 943.701 231.272 921.692C228.565 901.218 221.078 881.604 213.859 862.686C207.601 846.307 201.132 829.437 197.791 811.993C194.758 796.126 195.43 783.514 199.826 773.441C204.549 762.61 216.317 752.701 228.814 755.67C235.495 757.267 241.907 762.651 246.86 770.82C249.636 775.666 252.074 780.723 254.155 785.95C255.268 788.571 256.42 791.274 257.649 793.894C266.134 811.993 278.996 827.533 291.436 842.581C305.93 860.066 320.904 878.165 328.66 900.092C336.416 922.02 336.723 947.325 329.639 971.751C323.797 990.926 314.41 1008.66 302.033 1023.9Z" fill="black"/>
<path d="M268.553 1023.9H271.125C283.798 1008.18 292.324 989.151 295.833 968.762C299.672 947.776 298.904 924.886 293.702 900.706C292.262 894.011 290.016 886.764 284.103 883.631C282.434 882.743 280.593 882.287 278.728 882.3C275.854 882.459 273.056 883.341 270.563 884.875C268.071 886.409 265.954 888.55 264.387 891.125C260.298 897.758 259.511 905.784 258.628 913.646C255.748 942.575 251.947 971.792 247.378 1000.46C245.919 1009.5 244.326 1017.57 240.045 1024H242.406C246.246 1017.45 247.858 1009.57 249.26 1000.8C253.848 972.14 257.649 942.842 260.548 913.851C261.296 906.337 262.064 898.577 265.885 892.353C269.455 886.559 277.077 882.3 283.162 885.556C288.326 888.32 290.38 895.035 291.724 901.259C296.85 925.173 297.484 947.776 293.836 968.475C290.322 989.068 281.577 1008.24 268.553 1023.9Z" fill="black"/>
<path d="M118.467 1023.9H121.213C136.586 1007.03 145.523 984.657 146.285 961.145C147.225 935.246 138.932 907.647 122.902 883.488C120.08 879.209 117.008 875.012 114.033 870.978C109.829 865.246 105.49 859.329 101.804 853.125C94.4131 840.677 88.673 825.506 83.7393 805.401C77.3273 779.235 66.308 714.108 102.61 674.655C121.961 653.607 149.778 645.131 176.924 636.942C195.315 631.352 204.837 622.815 205.259 611.575C205.547 603.713 200.652 595.748 192.781 591.264C186.042 587.456 178.287 586.412 170.243 585.593C154.258 583.996 138.932 583.191 124.265 583.177C75.0237 583.177 33.5187 592.329 0.0959473 610.449V612.68C43.2325 589.012 100.172 580.598 170.07 587.641C178.191 588.46 185.428 589.442 191.878 593.087C199.116 597.181 203.608 604.409 203.397 611.513C203.013 621.75 193.952 629.673 176.348 635.038C149.145 643.227 121.001 651.847 101.286 673.283C64.3114 713.493 75.4459 779.481 81.9347 805.974C86.926 826.304 92.7428 841.639 100.23 854.272C104.069 860.578 108.35 866.556 112.574 872.289C115.53 876.383 118.602 880.478 121.405 884.716C137.166 908.527 145.344 935.676 144.442 961.145C143.462 985.366 133.768 1008.5 118.467 1023.9Z" fill="black"/>
<path d="M83.6815 1023.9H86.4268C103.013 1007.03 110.385 980.903 110.097 958.566C109.694 926.544 96.6589 895.895 84.603 869.689C83.2783 866.822 81.9537 863.976 80.6099 861.11C69.0914 836.398 57.1699 810.867 52.7545 783.494C46.8801 747.05 53.9639 705.795 74.3899 657.395C76.5592 652.236 79.0165 646.38 77.8839 640.443C75.9641 630.84 66.1158 626.48 55.826 626.48C53.574 626.479 51.326 626.684 49.1069 627.094C30.3318 630.554 13.9757 640.566 0 653.116V655.798C14.0333 642.92 30.4855 632.601 49.4333 629.182C60.8367 627.135 74.0253 630.472 76.0219 640.914C77.02 646.196 74.6971 651.724 72.6238 656.617C52.0442 705.406 44.922 747.05 50.854 783.903C55.327 811.563 67.3062 837.237 78.9014 862.072C80.2261 864.939 81.5698 867.805 82.8944 870.651C94.912 896.673 107.851 927.056 108.177 958.688C108.561 981.169 100.921 1007.52 83.6815 1023.9Z" fill="black"/>
<path d="M24.1119 1023.9H27.4523C48.9918 1007.17 60.5872 977.463 62.6412 951.584C65.4441 916.533 55.2886 881.543 46.3427 850.668C36.9359 818.258 27.1451 784.722 29.5449 750.613C29.6792 748.565 29.8521 746.641 30.0441 744.655C30.9176 737.797 30.9756 730.849 30.2167 723.976C28.988 715.787 24.4575 706.02 15.6459 702.847C13.8557 702.188 11.9724 701.862 10.0786 701.885C6.58606 701.911 3.14758 702.808 0.0384521 704.505V706.798C2.25928 705.373 4.73352 704.455 7.30457 704.102C9.87561 703.75 12.4872 703.971 14.974 704.751C23.0369 707.638 27.1835 717.035 28.2777 724.283C29.004 730.981 28.9331 737.75 28.0667 744.429C27.8938 746.477 27.7211 748.524 27.5675 750.428C25.2062 784.947 34.9969 818.668 44.4421 851.262C53.3497 881.973 63.4283 916.778 60.6639 951.379C58.629 977.668 46.573 1007.93 24.1119 1023.9Z" fill="black"/>
<path d="M0.0384521 961.043V965.506C8.33167 949.127 14.1101 929.493 17.3162 906.787C20.8484 881.522 22.6914 836.828 0.0384521 803.312V806.875C20.6565 839.633 18.8135 882.157 15.3964 906.501C13.0137 925.433 7.82983 943.843 0.0384521 961.043Z" fill="black"/>
<path d="M356.496 47.4174C359.453 84.3932 361.641 127.982 355.709 170.834C344.997 248.102 309.52 317.549 275.195 384.704C265.75 403.13 255.057 424.136 238.97 438.673C217.853 457.714 189.498 464.654 164.426 470.776C120.598 481.484 70.9154 493.625 23.7856 482.507C17.5272 481.033 11.2498 479.129 5.18335 477.307L0.0959473 475.772V477.819L4.64575 479.191C10.7505 481.033 17.0664 482.937 23.3633 484.432C70.9153 495.631 120.829 483.449 164.848 472.68C190.151 466.538 218.812 459.515 240.218 440.147C256.574 425.365 267.363 404.236 276.885 385.605C311.287 318.287 346.859 248.696 357.514 171.059C363.484 128.064 361.354 84.2704 358.32 47.1718C357.053 31.3455 355.364 15.1301 350.987 0.0818481H349.067C353.521 15.212 355.191 31.5297 356.496 47.4174Z" fill="black"/>
<path d="M292.991 282.416C268.399 351.004 238.739 392.279 199.692 412.282C180.283 422.232 158.494 426.614 137.857 429.685C101.074 435.315 49.3181 440.352 0.0959473 426.061V428.108C49.491 442.317 101.286 437.26 138.126 431.63C158.936 428.456 180.878 424.116 200.536 414.043C252.37 387.427 279.246 326.558 294.777 283.01C320.808 210.41 345.362 104.314 320.808 0.0612183H318.889C343.442 104.109 318.965 209.98 292.991 282.416Z" fill="black"/>
<path d="M290.38 122.126C284.725 162.186 274.553 201.37 260.087 238.827C234.362 305.265 199.308 348.26 155.864 366.687C136.187 374.876 114.743 377.988 94.4323 380.384C64.5226 383.885 31.215 386.526 0.0766602 378.643V380.691C31.3685 388.553 64.6954 385.871 94.6434 382.349C115.05 379.954 136.647 376.924 156.555 368.529C200.498 350.103 235.917 306.678 261.834 239.544C276.371 201.939 286.588 162.596 292.262 122.372C299.25 72.8458 296.543 32.5737 284.026 0.143127H281.953C294.623 32.4304 297.368 72.5797 290.38 122.126Z" fill="black"/>
<path d="M206.085 11.281C199.039 16.5837 190.727 20.0029 182.817 23.3196C179.592 24.6505 176.252 26.0223 173.026 27.5168C143.596 41.3552 119.63 65.7339 105.279 96.4318C101.113 105.898 97.4285 115.596 94.2402 125.484C91.1879 134.411 88.0587 143.624 84.2001 152.305C78.9178 163.579 73.0271 174.517 66.5576 185.063C54.9048 204.861 42.8679 225.315 39.8539 248.716C38.9989 256.947 38.7166 265.235 39.0092 273.51C39.0092 279.468 39.1627 285.631 38.7788 291.63C38.0302 303.545 34.7665 319.72 23.5936 329.097C16.7913 334.426 8.46655 337.074 0.0384521 336.59V338.638C8.89185 339.075 17.6144 336.232 24.7263 330.591C36.4559 320.743 39.8539 303.975 40.6409 291.691C41.0249 285.549 40.9481 279.407 40.8713 273.387C40.5808 265.221 40.8568 257.044 41.6969 248.921C44.6533 225.949 56.594 205.68 68.1317 186.087C74.6404 175.483 80.5634 164.484 85.8702 153.144C89.7097 144.382 92.9348 135.107 95.9872 126.139C99.1547 116.321 102.814 106.692 106.949 97.2917C121.107 67.0573 144.733 43.0553 173.737 29.4414C176.924 27.9673 180.245 26.5956 183.451 25.3467C191.533 21.989 199.903 18.5084 207.14 13.0623C211.712 9.63837 215.623 5.30774 218.659 0.307007H216.394C213.583 4.57739 210.094 8.2912 206.085 11.281Z" fill="black"/>
<path d="M124.016 15.7444C120.598 18.2217 117.028 20.6581 113.572 22.9921C102.418 30.5879 90.8999 38.4294 82.3378 49.4443C71.0305 63.9807 65.9816 82.53 61.1055 100.465C58.9938 108.225 56.8053 116.251 54.156 123.826C49.1655 137.08 43.3551 149.966 36.7631 162.399C26.6461 182.504 16.2026 203.346 13.2462 226.216C12.9967 228.14 12.7855 230.106 12.5935 232.071C11.7872 239.933 10.9425 248.102 6.83423 254.592C5.09241 257.31 2.79504 259.571 0.115112 261.205V263.478C3.43433 261.674 6.28345 259.023 8.40845 255.759C12.8239 248.921 13.6877 240.527 14.5132 232.378C14.7052 230.331 14.9164 228.509 15.166 226.584C18.0648 204.063 28.4506 183.425 38.4716 163.484C45.1093 150.948 50.952 137.952 55.9606 124.583C58.6482 116.926 60.8368 108.88 62.9677 101.079C67.7863 83.3491 72.7776 65.0045 83.8353 50.7957C92.2053 40.0264 103.609 32.2667 114.551 24.7733C118.007 22.4188 121.597 19.9824 125.033 17.4846C131.986 12.5545 138.361 6.75317 144.019 0.204712H141.428C136.161 6.03351 130.324 11.2432 124.016 15.7444Z" fill="black"/>
<path d="M34.5938 75.5485C25.3406 100.936 15.8379 126.938 0.0384521 146.838V149.91C16.913 129.579 26.7997 102.594 36.3792 76.2037C46.4003 48.7482 56.7094 20.5353 74.9661 0.122864H72.3359C54.655 20.6786 44.5189 48.5229 34.5938 75.5485Z" fill="black"/>
<path d="M0.0384521 62.1381C7.70349 52.6508 14.313 42.2491 19.735 31.1407L21.2323 28.2539C25.9935 18.5439 31.3418 9.17444 37.243 0.204712H34.8817C29.2648 8.88776 24.1364 17.919 19.5237 27.2507L18.0264 30.158C12.9789 40.4286 6.95093 50.1163 0.0384521 59.067V62.1381Z" fill="black"/>
<path d="M144.883 255.309C154.194 258.175 167.248 246.219 175.042 239.073L176.962 237.353C207.94 209.399 228.137 170.22 233.671 127.347C234.19 123.048 234.574 118.093 232.615 113.835C231.282 111.298 229.328 109.196 226.961 107.753C224.594 106.311 221.903 105.582 219.177 105.645C218.813 105.625 218.448 105.625 218.083 105.645C212.419 106.311 207.111 108.919 202.955 113.077C190.535 124.522 185.678 141.74 180.782 158.12C177.48 169.523 174.082 181.296 168.285 191.267C164.64 196.699 160.463 201.702 155.826 206.192C144.941 217.719 132.578 230.761 136.628 244.601C138.26 250.579 141.024 254.08 144.883 255.309ZM157.073 207.81C161.809 203.204 166.076 198.077 169.801 192.516C175.733 182.279 179.17 170.404 182.51 158.898C187.444 141.863 192.109 125.771 204.107 114.715C207.95 110.852 212.857 108.411 218.102 107.754C220.633 107.491 223.182 108.011 225.443 109.253C227.703 110.495 229.58 112.405 230.849 114.756C232.577 118.503 232.212 123.068 231.732 127.04C226.264 169.409 206.307 208.128 175.695 235.756L173.775 237.476C166.999 243.618 156.094 253.671 147.916 253.671C147.06 253.675 146.207 253.551 145.382 253.302C142.196 252.34 139.815 249.208 138.318 244.11C134.632 231.559 146.553 218.927 157.073 207.81Z" fill="black"/>
</g>
</svg>
